<?xml version="1.0" encoding="UTF-8" standalone="no"?>
<svg
   xmlns:osb="http://www.openswatchbook.org/uri/2009/osb"
   xmlns:dc="http://purl.org/dc/elements/1.1/"
   xmlns:cc="http://creativecommons.org/ns#"
   xmlns:rdf="http://www.w3.org/1999/02/22-rdf-syntax-ns#"
   xmlns:svg="http://www.w3.org/2000/svg"
   xmlns="http://www.w3.org/2000/svg"
   xmlns:xlink="http://www.w3.org/1999/xlink"
   id="svg8"
   version="1.1"
   viewBox="0 0 264.58333 264.58333"
   height="1000"
   width="1000">
  <defs
     id="defs2">
    <linearGradient
       id="linearGradient2324">
      <stop
         id="stop2320"
         offset="0"
         style="stop-color:#4f00ff;stop-opacity:1" />
      <stop
         id="stop2322"
         offset="1"
         style="stop-color:#8d00ff;stop-opacity:1" />
    </linearGradient>
    <linearGradient
       osb:paint="gradient"
       id="linearGradient866">
      <stop
         id="stop862"
         offset="0"
         style="stop-color:#000000;stop-opacity:1;" />
      <stop
         id="stop864"
         offset="1"
         style="stop-color:#000000;stop-opacity:0;" />
    </linearGradient>
    <linearGradient
       gradientTransform="translate(0,8.2682364)"
       spreadMethod="pad"
       y2="151.97778"
       x2="203.06772"
       y1="151.97778"
       x1="61.515629"
       gradientUnits="userSpaceOnUse"
       id="linearGradient2759"
       xlink:href="#linearGradient2324" />
  </defs>
  <metadata
     id="metadata5">
    <rdf:RDF>
      <cc:Work
         rdf:about="">
        <dc:format>image/svg+xml</dc:format>
        <dc:type
           rdf:resource="http://purl.org/dc/dcmitype/StillImage" />
        <dc:title></dc:title>
      </cc:Work>
    </rdf:RDF>
  </metadata>
  <g
     transform="translate(0,-32.416678)"
     id="layer1">
    <path
       d="m 95.401605,239.12241 c -29.269386,16.53646 -29.25577,33.07292 -29.25577,33.07292 V 206.0495 l 23.208983,-16.53646 m 79.826902,49.60937 c 29.52317,16.53646 29.25579,33.07292 29.25579,33.07292 V 206.0495 L 175.22858,189.51304 M 132.29167,57.221363 c 49.60938,82.682297 49.60937,132.291677 33.07292,198.437507 0,0 -16.53646,-16.53644 -33.07293,-16.53645 -16.53645,-1e-5 -33.072907,16.53645 -33.072907,16.53645 C 82.682294,189.51304 82.682294,139.90366 132.29167,57.221363 Z"
       style="fill:url(#linearGradient2759);fill-opacity:1;stroke:#000000;stroke-width:9.26041698;stroke-linecap:butt;stroke-linejoin:miter;stroke-miterlimit:100;stroke-dasharray:none;stroke-dashoffset:0;stroke-opacity:1"
       id="path859" />
    <path
       d="m 115.7662,174.19756 16.52547,-9.48922 16.52547,9.48922 m -16.52547,28.46768 -16.52547,-9.48922 v -18.97846 l 16.52547,9.48923 16.52547,-9.48923 v 18.97846 l -16.52547,9.48922 v -18.97845"
       style="fill:none;stroke:#000000;stroke-width:5.2916666;stroke-linecap:butt;stroke-linejoin:round;stroke-opacity:1;stroke-miterlimit:4;stroke-dasharray:none"
       id="path2865" />
  </g>
</svg>
